<svg id="Capa_1" data-name="Capa 1" xmlns="http://www.w3.org/2000/svg" viewBox="0 0 194.02 194.02"><defs><style>.cls-1{fill:#a1aa79;}.cls-2{fill:#fff;}</style></defs><title>iconos</title><circle class="cls-1" cx="97.01" cy="97.01" r="97.01"/><path class="cls-2" d="M139.78,126.52H134v-5a15.93,15.93,0,0,0,4.18-3,16.37,16.37,0,0,0,2.86-3.87,24.78,24.78,0,0,0,10.58-20.32,22.08,22.08,0,0,0-7.36-16.75,24.73,24.73,0,0,0-11-5.59,7.91,7.91,0,1,0-12.82,0,24.82,24.82,0,0,0-11,5.59A22.11,22.11,0,0,0,102,94.27a24.76,24.76,0,0,0,10.58,20.32,16.16,16.16,0,0,0,7,6.86v5.07h-5.78A14.84,14.84,0,0,0,101.58,133a16.91,16.91,0,0,0-15.16-9.44H79v-5.38a18.33,18.33,0,0,0,10.57-14.86,8.09,8.09,0,0,0,5.06-13.78,8.23,8.23,0,0,0-1.36-1.09,6.91,6.91,0,0,0-1.67-9.13,7.3,7.3,0,0,0,.06-.94,6.89,6.89,0,0,0-10.3-6,17.8,17.8,0,0,0-3.83-1.91,18.35,18.35,0,0,0-16,1.8,6.89,6.89,0,0,0-10.11,6.1,7.3,7.3,0,0,0,.06.94,6.89,6.89,0,0,0-1.76,9,8.09,8.09,0,0,0,3.44,15A18.31,18.31,0,0,0,63.69,118.2v5.37H56.28a16.92,16.92,0,0,0-16.9,16.91V147a2.26,2.26,0,0,0,2.26,2.26H152.39a2.26,2.26,0,0,0,2.26-2.26v-5.58A14.88,14.88,0,0,0,139.78,126.52ZM53,98.76a3.45,3.45,0,0,1-1.77-1,3.52,3.52,0,0,1-1.05-2.52A3.57,3.57,0,0,1,53,91.78Zm39.44-3.49a3.58,3.58,0,0,1-2.82,3.49v-7a3.55,3.55,0,0,1,1.77,1A3.6,3.6,0,0,1,92.48,95.27ZM83,76.78h0v0a2.38,2.38,0,0,1,3.86,2.69,2.21,2.21,0,0,0-.06,1.85,2.27,2.27,0,0,0,1.35,1.28,2.37,2.37,0,0,1-.56,4.61h-.36a2.36,2.36,0,0,1-2-3.42A2.26,2.26,0,0,0,84,80.64a2.37,2.37,0,0,1-1.6-2.25A2.35,2.35,0,0,1,83,76.78ZM55.64,87.19h-.18a2.38,2.38,0,0,1-.6-4.62,2.25,2.25,0,0,0,1.35-1.28,2.21,2.21,0,0,0-.06-1.85A2.38,2.38,0,0,1,58.29,76a2.32,2.32,0,0,1,1.64.66h0a2.35,2.35,0,0,1,.73,1.71,2.38,2.38,0,0,1-1.6,2.25,2.25,2.25,0,0,0-1.29,3.14,2.3,2.3,0,0,1,.24,1A2.38,2.38,0,0,1,55.64,87.19Zm6,24.13a13.74,13.74,0,0,1-4-9.76V91.44a6.91,6.91,0,0,0,5-6.62,5.86,5.86,0,0,0-.07-.94,6.91,6.91,0,0,0,2.72-5.49,7,7,0,0,0-.56-2.71A13.87,13.87,0,0,1,76,74.74a14.42,14.42,0,0,1,2.35,1.11,6.83,6.83,0,0,0-.48,2.54,6.9,6.9,0,0,0,2.71,5.49,7.3,7.3,0,0,0-.07.94,6.93,6.93,0,0,0,4.63,6.51v10.23a13.8,13.8,0,0,1-23.54,9.76Zm12.88,8.55v3.7H68.21v-3.7ZM98.8,144.7H43.9v-4.22a12.4,12.4,0,0,1,12.38-12.39H86.42A12.4,12.4,0,0,1,98.8,140.48Zm28-80.79a3.4,3.4,0,1,1-3.39,3.39A3.39,3.39,0,0,1,126.82,63.91Zm-14.17,23.7a16.14,16.14,0,0,0-1.9,7.58v11.45a20.23,20.23,0,0,1-4.21-12.37c0-10.74,8.53-18.53,20.28-18.53s20.28,7.79,20.28,18.53a20.29,20.29,0,0,1-4.21,12.37V95.19a16.22,16.22,0,0,0-.11-1.84,2.25,2.25,0,0,0-1.88-2,8.55,8.55,0,0,1-5.93-4,2.26,2.26,0,0,0-3.88,0,8.51,8.51,0,0,1-14.53.14,2.25,2.25,0,0,0-3.91.13Zm3.75,24.47a11.42,11.42,0,0,1-1.13-5V95.19a12.08,12.08,0,0,1,.2-2.17,13,13,0,0,0,8.31,3A13.14,13.14,0,0,0,133,92.16a13,13,0,0,0,5.34,3.25V107.1a11.42,11.42,0,0,1-1.13,5,11.84,11.84,0,0,1-2.25,3.18,11.56,11.56,0,0,1-18.59-3.18Zm13.08,11.08v3.36h-5.33v-3.36Zm20.65,21.54H103.51v-3.32A10.35,10.35,0,0,1,113.85,131h25.93a10.36,10.36,0,0,1,10.35,10.34v3.32Z"/><path class="cls-2" d="M100.7,42.8a8.21,8.21,0,0,0-3.69.87,8.21,8.21,0,0,0-3.69-.87A8.3,8.3,0,0,0,85,51.09c0,6.44,6.73,10.26,9.61,11.89.34.19.78.44.92.54A2.27,2.27,0,0,0,97,64a2.32,2.32,0,0,0,1.45-.52c.14-.1.57-.35.92-.54,2.87-1.63,9.6-5.45,9.6-11.89A8.29,8.29,0,0,0,100.7,42.8ZM97.15,59l-.14.08L96.87,59c-2.37-1.34-7.31-4.14-7.31-7.95a3.76,3.76,0,0,1,6.07-3,2.25,2.25,0,0,0,2.76,0,3.76,3.76,0,0,1,6.07,3C104.46,54.9,99.52,57.7,97.15,59Z"/><path class="cls-2" d="M138.59,137.83H125.93a2.26,2.26,0,0,0,0,4.52h12.66a2.26,2.26,0,0,0,0-4.52Z"/><path class="cls-2" d="M145.82,137.83c-2.91,0-2.91,4.52,0,4.52S148.73,137.83,145.82,137.83Z"/></svg>