<svg id="Capa_1" data-name="Capa 1" xmlns="http://www.w3.org/2000/svg" viewBox="0 0 194.02 194.02"><defs><style>.cls-1{fill:#a1aa79;}.cls-2{fill:#fff;}</style></defs><title>iconos</title><circle class="cls-1" cx="97.01" cy="97.01" r="97.01"/><path class="cls-2" d="M48.91,83.64a1.78,1.78,0,0,0,1.78-1.77V74.21a1.78,1.78,0,1,0-3.55,0v7.66A1.77,1.77,0,0,0,48.91,83.64Z"/><path class="cls-2" d="M48.91,84a2.14,2.14,0,0,1-2.14-2.15V74.21a2.15,2.15,0,1,1,4.29,0v7.66A2.15,2.15,0,0,1,48.91,84Zm0-11.21a1.4,1.4,0,0,0-1.39,1.4v7.66a1.4,1.4,0,1,0,2.79,0V74.21A1.4,1.4,0,0,0,48.91,72.81Z"/><path class="cls-2" d="M153,117.41v-24a1.79,1.79,0,0,0-.26-.93L134.3,62.64a1.76,1.76,0,0,0-1.51-.85H121.06V60.12a5.23,5.23,0,0,0-10.45,0h0v1.67H42.83a1.78,1.78,0,0,0-1.77,1.78v53.84a4.65,4.65,0,0,0-2.68,1.34,4.81,4.81,0,0,0,3.4,8.21H52.67a13.92,13.92,0,0,0,27.62,0h31.09A13.92,13.92,0,0,0,139,127h13.24a4.8,4.8,0,0,0,.72-9.55Zm-3.55-12.89h-3.88V102h3.88ZM148,91.69H114.16V74.46h23.25ZM114.16,60.12a1.68,1.68,0,1,1,3.35,0h0v1.67h-3.35Zm-1.78,5.22H131.8l3.43,5.57H112.38a1.78,1.78,0,0,0-1.77,1.78V93.46a1.77,1.77,0,0,0,1.77,1.77h37v3.21h-5.66a1.78,1.78,0,0,0-1.77,1.78v6.08a1.77,1.77,0,0,0,1.77,1.77h5.66v9.27H136.69a13.9,13.9,0,0,0-19.33-3.67,13.63,13.63,0,0,0-3.67,3.67H78a13.9,13.9,0,0,0-19.33-3.67A13.63,13.63,0,0,0,55,117.34H44.61v-9.27h5.66A1.77,1.77,0,0,0,52,106.3v-6.08a1.78,1.78,0,0,0-1.77-1.78H44.61V65.34ZM79.73,120.88h32.21a14.77,14.77,0,0,0-.56,2.54H80.29A14.77,14.77,0,0,0,79.73,120.88ZM44.61,102h3.88v2.53H44.61Zm-4.1,20.16a1.26,1.26,0,0,1,.39-.91,1.25,1.25,0,0,1,.88-.36H53.23a13.89,13.89,0,0,0-.56,2.54H41.78A1.27,1.27,0,0,1,40.51,122.15Zm26,13.43a10.39,10.39,0,1,1,10.39-10.42v.06A10.41,10.41,0,0,1,66.48,135.58Zm58.71,0a10.41,10.41,0,0,1-10.39-10.37v0a10.39,10.39,0,1,1,10.39,10.41ZM153.13,123a1.23,1.23,0,0,1-.89.38H139a14.77,14.77,0,0,0-.56-2.54h13.8a1.27,1.27,0,0,1,1.27,1.27,1.25,1.25,0,0,1-.38.89Z"/><path class="cls-2" d="M66.45,139.5a14.28,14.28,0,0,1-14.1-12.16H41.78a5.15,5.15,0,0,1-3.67-1.52,5.2,5.2,0,0,1,0-7.34,5.14,5.14,0,0,1,2.58-1.39V63.57a2.14,2.14,0,0,1,2.14-2.15h67.4v-1.3a5.58,5.58,0,0,1,1.65-4,5.53,5.53,0,0,1,4-1.64h0a5.6,5.6,0,0,1,5.6,5.6v1.3h11.36a2.17,2.17,0,0,1,1.83,1L153,92.33a2.23,2.23,0,0,1,.31,1.13V117.1a5.18,5.18,0,0,1-1.08,10.24H139.32a14.29,14.29,0,0,1-28.26,0H80.62a14.31,14.31,0,0,1-12.33,12A16.36,16.36,0,0,1,66.45,139.5ZM42.83,62.17a1.39,1.39,0,0,0-1.39,1.4v54.16l-.33,0a4.43,4.43,0,0,0,.67,8.81H53l0,.33a13.55,13.55,0,0,0,26.88,0l0-.33h31.75l0,.33a13.55,13.55,0,0,0,26.88,0l0-.33h13.58a4.43,4.43,0,0,0,.65-8.81l-.32,0V93.46a1.43,1.43,0,0,0-.2-.73L134,62.83a1.4,1.4,0,0,0-1.19-.66H120.68V60.12a4.85,4.85,0,0,0-4.85-4.85h0a4.78,4.78,0,0,0-3.42,1.42A4.84,4.84,0,0,0,111,60.12v2.05ZM66.48,136a10.76,10.76,0,1,1,10.76-10.79A10.81,10.81,0,0,1,66.48,136Zm0-20.77a10,10,0,1,0,0,20h0a10,10,0,1,0,0-20ZM125.19,136h0a10.76,10.76,0,1,1,0-21.52h0a10.76,10.76,0,0,1,0,21.52Zm0-20.77a10,10,0,1,0,10,10,10,10,0,0,0-10-10Zm27.05,8.61H138.67l0-.33a13.88,13.88,0,0,0-.55-2.46l-.16-.49h14.32a1.64,1.64,0,0,1,1.64,1.64,1.64,1.64,0,0,1-1.64,1.64ZM139.33,123h12.91a.89.89,0,0,0,.63-.26h0a.89.89,0,0,0,.26-.63.89.89,0,0,0-.89-.89h-13.3A13.44,13.44,0,0,1,139.33,123Zm-27.62.75H80l0-.33a13.88,13.88,0,0,0-.55-2.46l-.16-.49h33.25l-.16.49a13.88,13.88,0,0,0-.55,2.46ZM80.62,123h30.43a13.44,13.44,0,0,1,.39-1.78H80.23A13.44,13.44,0,0,1,80.62,123ZM53,123.79H41.78a1.65,1.65,0,0,1-1.64-1.64h0a1.64,1.64,0,0,1,.49-1.17,1.58,1.58,0,0,1,1.15-.47h12l-.16.49a13.88,13.88,0,0,0-.55,2.46Zm-12.11-1.64a.89.89,0,0,0,.89.89H52.34a13.44,13.44,0,0,1,.39-1.78H41.78a.92.92,0,0,0-.62.25A.91.91,0,0,0,40.89,122.15Zm108.9-4.44h-13.3l-.11-.16a13.54,13.54,0,0,0-22.38,0l-.11.16H77.78l-.11-.16a13.54,13.54,0,0,0-22.38,0l-.11.16h-11v-10h6a1.41,1.41,0,0,0,1.4-1.4v-6.08a1.4,1.4,0,0,0-1.4-1.4h-6V65H132l3.89,6.33H112.38a1.41,1.41,0,0,0-1.4,1.4V93.46a1.41,1.41,0,0,0,1.4,1.4h37.41v4h-6a1.4,1.4,0,0,0-1.4,1.4v6.08a1.41,1.41,0,0,0,1.4,1.4h6Zm-12.9-.75H149v-8.51h-5.29a2.17,2.17,0,0,1-2.15-2.15v-6.08a2.15,2.15,0,0,1,2.15-2.15H149V95.61H112.38a2.17,2.17,0,0,1-2.15-2.15V72.69a2.16,2.16,0,0,1,2.15-2.15h22.18l-3-4.83H45V98.07h5.29a2.15,2.15,0,0,1,2.15,2.15v6.08a2.17,2.17,0,0,1-2.15,2.15H45V117h9.8a14.3,14.3,0,0,1,23.4,0h35.31a13.92,13.92,0,0,1,3.66-3.6,14.29,14.29,0,0,1,19.74,3.6Zm12.9-12.06h-4.64v-3.29h4.64Zm-3.89-.75H149v-1.79H145.9Zm-97,.75H44.23v-3.29h4.64ZM45,104.15h3.14v-1.79H45Zm103.7-12.09h-34.9v-18h23.84Zm-34.15-.75h32.81L137.2,74.83H114.53Zm3.35-29.14h-4.1V60.12a2,2,0,0,1,2-2,2.05,2.05,0,0,1,2,2Zm-3.35-.75h2.6v-1.3a1.3,1.3,0,1,0-2.6,0Z"/><path class="cls-2" d="M66.48,120.37a4.82,4.82,0,1,0,4.81,4.82h0A4.82,4.82,0,0,0,66.48,120.37Zm0,6.08a1.27,1.27,0,1,1,1.27-1.26A1.26,1.26,0,0,1,66.48,126.45Z"/><path class="cls-2" d="M66.48,130.38a5.19,5.19,0,0,1,0-10.38h0a5.19,5.19,0,1,1,0,10.38Zm0-9.63a4.44,4.44,0,1,0,4.44,4.44,4.44,4.44,0,0,0-4.44-4.44Zm0,6.08h0a1.64,1.64,0,1,1,1.64-1.64A1.64,1.64,0,0,1,66.48,126.83Zm0-2.53a.89.89,0,1,0,.89.89A.89.89,0,0,0,66.48,124.3Z"/><path class="cls-2" d="M125.19,120.37a4.82,4.82,0,1,0,4.81,4.82h0A4.82,4.82,0,0,0,125.19,120.37Zm0,6.08a1.27,1.27,0,1,1,1.27-1.26A1.26,1.26,0,0,1,125.19,126.45Z"/><path class="cls-2" d="M125.19,130.38a5.19,5.19,0,0,1,0-10.38h0a5.19,5.19,0,0,1,0,10.38Zm0-9.63a4.44,4.44,0,1,0,4.44,4.44,4.44,4.44,0,0,0-4.44-4.44Zm0,6.08h0a1.64,1.64,0,1,1,1.64-1.64A1.64,1.64,0,0,1,125.19,126.83Zm0-2.53a.89.89,0,1,0,.89.89A.89.89,0,0,0,125.19,124.3Z"/><path class="cls-2" d="M112.38,102h6.08a1.78,1.78,0,1,0,0-3.55h-6.08a1.78,1.78,0,0,0,0,3.55Z"/><path class="cls-2" d="M118.46,102.36h-6.08a2.15,2.15,0,1,1,0-4.29h6.08a2.15,2.15,0,1,1,0,4.29Zm-6.08-3.54a1.4,1.4,0,1,0,0,2.79h6.08a1.4,1.4,0,1,0,0-2.79Z"/><path class="cls-2" d="M59.26,93.71h4.81v4.82a1.78,1.78,0,0,0,1.78,1.77H75a1.77,1.77,0,0,0,1.77-1.77V93.71h4.82a1.77,1.77,0,0,0,1.77-1.77V82.82a1.77,1.77,0,0,0-1.77-1.77H76.74V76.23A1.77,1.77,0,0,0,75,74.46H65.85a1.78,1.78,0,0,0-1.78,1.77v4.82H59.26a1.77,1.77,0,0,0-1.77,1.77v9.12A1.77,1.77,0,0,0,59.26,93.71ZM61,84.59h4.82a1.77,1.77,0,0,0,1.77-1.77V78H73.2v4.81A1.77,1.77,0,0,0,75,84.59h4.81v5.58H75a1.77,1.77,0,0,0-1.77,1.77v4.81H67.62V91.94a1.77,1.77,0,0,0-1.77-1.77H61Z"/><path class="cls-2" d="M75,100.68H65.85a2.15,2.15,0,0,1-2.15-2.15V94.09H59.26a2.16,2.16,0,0,1-2.15-2.15V82.82a2.16,2.16,0,0,1,2.15-2.15H63.7V76.23a2.16,2.16,0,0,1,2.15-2.15H75a2.17,2.17,0,0,1,2.15,2.15v4.44h4.44a2.15,2.15,0,0,1,2.14,2.15v9.12a2.15,2.15,0,0,1-2.14,2.15H77.12v4.44A2.16,2.16,0,0,1,75,100.68ZM59.26,81.42a1.4,1.4,0,0,0-1.4,1.4v9.12a1.4,1.4,0,0,0,1.4,1.4h5.19v5.19a1.4,1.4,0,0,0,1.4,1.4H75a1.4,1.4,0,0,0,1.4-1.4V93.34h5.19A1.4,1.4,0,0,0,83,91.94V82.82a1.4,1.4,0,0,0-1.4-1.4H76.37V76.23a1.41,1.41,0,0,0-1.4-1.4H65.85a1.41,1.41,0,0,0-1.4,1.4v5.19ZM73.57,97.13H67.25V91.94a1.4,1.4,0,0,0-1.4-1.4H60.66V84.22h5.19a1.4,1.4,0,0,0,1.4-1.4V77.63h6.32v5.19a1.4,1.4,0,0,0,1.4,1.4h5.19v6.32H75a1.4,1.4,0,0,0-1.4,1.4ZM68,96.38h4.82V91.94A2.15,2.15,0,0,1,75,89.79h4.44V85H75a2.15,2.15,0,0,1-2.15-2.15V78.38H68v4.44A2.16,2.16,0,0,1,65.85,85H61.41v4.82h4.44A2.16,2.16,0,0,1,68,91.94Z"/></svg>