<svg id="Capa_1" data-name="Capa 1" xmlns="http://www.w3.org/2000/svg" viewBox="0 0 102.21 93.27"><defs><style>.cls-1{fill:#a1aa79;}</style></defs><title>iconos</title><path class="cls-1" d="M48.87,93.06s-7.63-12.91-5-23.21c0,0,1.56-14,9.32-19.72s17.64,6.73,17.64,6.73,5.09,5.7,6.31,7.44,8.3,9,14.37,5.67a9.36,9.36,0,0,1,3.26-5s3.82-2.94,2.86-7.05c0,0-.71-6,1.44-8.51s4.82-4.89,1.61-13.21a35.3,35.3,0,0,1-1.64-10,12.18,12.18,0,0,0-3-8s-6.54-7.28-13.86-.08c0,0-7.59,7.32-2.58-2.54,0,0,5.11-5.91-.44-11a7.13,7.13,0,0,0-7-1.07s-1.16.87-4.48-1.71a6.4,6.4,0,0,0-5.67-.19c-3.44,1.31-7.61-.4-7.61-.4s-5.11-3-9.55.54c0,0-2.5,2.31-4.21,2.32s-4.48,2.29-4.48,2.29-7.26,6-2.47,12.13A83.4,83.4,0,0,0,47.15,32.74c8.48,7.19,4.92,17.4,4.92,17.4S43.9,58.28,42.63,70s.67,15.22.67,15.22l3,7.81S48.61,93.57,48.87,93.06Z"/><path class="cls-1" d="M42.16,79S43.6,70.74,40,65.69c0,0-3.83-7.23-9.28-8.91s-8.24,6.7-8.24,6.7-1.57,4-1.87,5.09-2.64,6.29-6.67,5.56a5.89,5.89,0,0,0-2.84-2.08S8.34,71.15,8,68.78c0,0-.88-3.34-2.59-4.3s-3.68-1.77-3.68-6.79A19.67,19.67,0,0,0,.49,52.05a6.54,6.54,0,0,1,0-4.84s2-5.05,7.57-2.48c0,0,5.71,2.58.87-1.82,0,0-4.05-2.26-2.09-5.95a4,4,0,0,1,3.59-1.8s.81.26,2.09-1.7a3.6,3.6,0,0,1,3.06-1.1,6.74,6.74,0,0,0,4.08-1.56A5.07,5.07,0,0,1,25,29.42a5.76,5.76,0,0,0,2.8.5,6.69,6.69,0,0,1,2.94.44s5.25,2,3.92,6.06a43.47,43.47,0,0,1-4.31,10c-3.12,5.34,1,10.18,1,10.18a22.75,22.75,0,0,1,9.38,9c3.17,6,2.86,8.26,2.86,8.26v4.71S42.41,79.22,42.16,79Z"/></svg>