<svg id="Capa_1" data-name="Capa 1" xmlns="http://www.w3.org/2000/svg" viewBox="0 0 380.66 215.45"><defs><style>.cls-1{fill:#fff;}</style></defs><title>iconos</title><path class="cls-1" d="M43.26,165.57H9.94v13.17H34v10.45H10v26.18H0V155.45H43.26Z"/><path class="cls-1" d="M106.15,215.37H62.89V155.45h43.26v10.12H72.83v13.17H96.89v10.45H72.83v16h33.32Z"/><path class="cls-1" d="M167.85,215.37H127.4V155.45h9.85v49.89h30.6Z"/><path class="cls-1" d="M198.7,215.37h-9.86V155.45h9.86Z"/><path class="cls-1" d="M278.76,197.18a31.31,31.31,0,0,1-5.53,8.37,31.85,31.85,0,0,1-6.92,5.65,28.9,28.9,0,0,1-7.65,3.23,30.45,30.45,0,0,1-7.61,1,29.65,29.65,0,0,1-21.37-8.88,30.43,30.43,0,0,1-6.33-9.56,29.41,29.41,0,0,1-2.3-11.56,30.12,30.12,0,0,1,8.63-21.16,30.09,30.09,0,0,1,9.52-6.46,29.51,29.51,0,0,1,11.85-2.38A30.89,30.89,0,0,1,265.12,159a29.05,29.05,0,0,1,12.19,12.11c-1.24,1-2.55,1.88-3.9,2.76s-2.81,1.86-4.34,2.93a24.45,24.45,0,0,0-8.12-8.37,19,19,0,0,0-9.9-2.76,18.75,18.75,0,0,0-7.77,1.62A20.29,20.29,0,0,0,237,171.6a20,20,0,0,0-4.21,6.33,19.12,19.12,0,0,0-1.53,7.52,18.79,18.79,0,0,0,1.62,7.78,20,20,0,0,0,4.37,6.29,20.85,20.85,0,0,0,6.33,4.21,19,19,0,0,0,7.48,1.53,18.8,18.8,0,0,0,5-.73,20.42,20.42,0,0,0,5.23-2.25,20.2,20.2,0,0,0,4.68-3.91,18.54,18.54,0,0,0,3.4-5.61Z"/><path class="cls-1" d="M307.32,215.37h-9.86V155.45h9.86Z"/><path class="cls-1" d="M380.66,215.37H370.8l-4.16-9.44H344l-4.16,9.44H330l25.32-59.66Zm-18.27-19.46-7.06-16.58-7.05,16.58Z"/><path class="cls-1" d="M196.36,129.48s-10.62-18-6.9-32.3c0,0,2.17-19.52,13-27.44S227,79.11,227,79.11s7.08,7.93,8.78,10.35,11.55,12.55,20,7.89a13,13,0,0,1,4.54-6.9s5.31-4.09,4-9.8c0,0-1-8.37,2-11.85s6.7-6.8,2.23-18.38a48.85,48.85,0,0,1-2.27-13.92A16.94,16.94,0,0,0,262,25.3s-9.11-10.14-19.29-.12c0,0-10.56,10.19-3.59-3.54,0,0,7.12-8.21-.61-15.28a9.93,9.93,0,0,0-9.68-1.49s-1.61,1.2-6.23-2.38c0,0-3.1-2.08-7.89-.26s-10.59-.56-10.59-.56-7.11-4.21-13.28.75c0,0-3.49,3.22-5.87,3.23s-6.24,3.19-6.24,3.19-10.08,8.4-3.43,16.88A116,116,0,0,0,194,45.55c11.81,10,6.85,24.21,6.85,24.21s-11.37,11.32-13.13,27.59.92,21.17.92,21.17l4.2,10.88S196,130.18,196.36,129.48Z"/><path class="cls-1" d="M187,109.9s2-11.48-3.06-18.5c0,0-5.33-10.07-12.92-12.41s-11.45,9.33-11.45,9.33-2.2,5.49-2.62,7.09-3.66,8.74-9.27,7.73a8.14,8.14,0,0,0-3.95-2.89S140,99,139.49,95.7c0,0-1.24-4.65-3.62-6s-5.11-2.46-5.12-9.45a27.17,27.17,0,0,0-1.7-7.85,9.12,9.12,0,0,1-.08-6.73s2.83-7,10.53-3.45c0,0,7.95,3.59,1.22-2.53,0,0-5.64-3.14-2.9-8.28a5.48,5.48,0,0,1,5-2.5s1.14.36,2.91-2.37A5,5,0,0,1,150,45a9.41,9.41,0,0,0,5.68-2.16,7,7,0,0,1,7.44-1.93s2.59,1.1,3.89.7,4.09.6,4.09.6,7.31,2.73,5.46,8.44a60.63,60.63,0,0,1-6,13.89c-4.34,7.43,1.39,14.16,1.39,14.16s8.62,4.06,13,12.46,4,11.49,4,11.49v6.56S187.37,110.21,187,109.9Z"/></svg>