<svg id="Capa_1" data-name="Capa 1" xmlns="http://www.w3.org/2000/svg" viewBox="0 0 194.02 194.02"><defs><style>.cls-1{fill:#a1aa79;}.cls-2{fill:#fff;}</style></defs><title>iconos</title><circle class="cls-1" cx="97.01" cy="97.01" r="97.01"/><path class="cls-2" d="M144.29,96.34a8.85,8.85,0,0,0-12.2.74l-8.69,9.32a8.87,8.87,0,0,0-8.46-6.24H99.44c-1.18,0-1.57-.45-3.62-2a20.73,20.73,0,0,0-27.25.06l-5.7,5a8.84,8.84,0,0,0-8.13-.1l-6.53,3.26a3,3,0,0,0-1.32,4l17.73,35.46a3,3,0,0,0,4,1.32l6.54-3.26a8.88,8.88,0,0,0,4.9-8.24h34.92a20.81,20.81,0,0,0,16.55-8.28l14.18-18.92A8.83,8.83,0,0,0,144.29,96.34ZM72.47,138.58l-3.89,1.95L53.49,110.35l3.9-1.95a3,3,0,0,1,4,1.33L73.8,134.62A3,3,0,0,1,72.47,138.58Zm68.47-33.69L126.76,123.8a14.83,14.83,0,0,1-11.82,5.91H78L66.88,107.56l5.59-4.92a14.83,14.83,0,0,1,19.53,0c3.27,2.89,5.31,3.43,7.44,3.43h15.5a3,3,0,0,1,0,5.91H99.84a3,3,0,0,0,0,5.91h17.08a8.85,8.85,0,0,0,6.48-2.82l13-14a3,3,0,0,1,4.52,3.79Z"/><path class="cls-2" d="M108.71,66.74A11.78,11.78,0,0,0,112,58.59a12,12,0,0,0-11.82-12,12.18,12.18,0,0,0-12,12,11.6,11.6,0,0,0,3.38,8.18,18,18,0,0,0-9.29,15.66v3a3,3,0,0,0,3,3h29.75a3,3,0,0,0,3-3v-3A18,18,0,0,0,108.71,66.74Zm-8.55-14.25a6.09,6.09,0,0,1,5.91,6.1,5.92,5.92,0,0,1-5.91,5.91,6.09,6.09,0,0,1-6.11-5.91A6.27,6.27,0,0,1,100.16,52.49Zm-12,29.94a12.19,12.19,0,0,1,12-12,11.93,11.93,0,0,1,11.82,12Z"/></svg>