<svg id="Capa_1" data-name="Capa 1" xmlns="http://www.w3.org/2000/svg" viewBox="0 0 194.02 194.02">
<defs><style>.cls-1{fill:#a1aa79;}.cls-2{fill:#fff;}</style></defs>
<title>iconos</title><circle class="cls-1" cx="97.01" cy="97.01" r="97.01"/>
<path 
class="cls-2"
 d="M158.74,104.12a14.47,14.47,0,0,0-12.23-12.23V88.14c0-10.34-7.87-18.76-17.53-18.76-9.39,0-17.25,8.16-17.53,18.2h.12l-.12,0v40.65c0,13-9.72,23.54-21.66,23.54s-21.65-10.56-21.65-23.54v-3.52c3,0,6.18-2.17,6.18-8.25v-5.19C87.56,107.91,97,96.54,97,83.65v-4.3H92.89L92.8,52.51a10.32,10.32,0,0,0-8.49-10.09,6.16,6.16,0,1,0-.14,4.2,6.18,6.18,0,0,1,4.5,5.9l.09,26.83H84.64v4.36A16.41,16.41,0,0,1,72.76,99.1a18.76,18.76,0,0,1-11.34,0A16.39,16.39,0,0,1,49.57,83.71V79.35H43.39V52.54A6.19,6.19,0,0,1,48,46.59a6.22,6.22,0,1,0-.12-4.18,10.31,10.31,0,0,0-8.58,10.13V79.35H35.14v4.29c0,12.91,9.45,24.28,22.68,27.65v5.19c0,6.08,3.2,8.25,6.19,8.25v3.52c0,15.26,11.56,27.67,25.78,27.67s25.78-12.42,25.78-27.67V87.7c.21-7.82,6.23-14.19,13.41-14.19,7.39,0,13.4,6.56,13.4,14.64v3.74a14.44,14.44,0,1,0,16.36,12.23ZM78.45,46.36a2.07,2.07,0,1,1,2.06-2.07A2.07,2.07,0,0,1,78.45,46.36ZM53.7,42.23a2.07,2.07,0,1,1-2.06,2.06A2.06,2.06,0,0,1,53.7,42.23ZM39.26,83.64v-.16h6.19v.23A20.5,20.5,0,0,0,60.17,103,23.08,23.08,0,0,0,74,103,20.51,20.51,0,0,0,88.76,83.71v-.23h4.13v.16c0,11.48-8.85,21.57-21,24a29.55,29.55,0,0,1-8.7.42,24.8,24.8,0,0,1-2.85-.43C48.11,105.21,39.26,95.12,39.26,83.64ZM64,120.6c-1.86,0-2.06-2.88-2.06-4.12V112.1l.5.05.62.06c1,.08,2,.14,2.95.14h.1c1,0,2-.06,2.94-.14l.64-.06.5-.05v4.38c0,1.24-.21,4.12-2.07,4.12Zm80.44-4.12a10.32,10.32,0,1,1,10.31-10.31A10.32,10.32,0,0,1,144.45,116.48Z"/><path class="cls-2" d="M89.79,156.29c-14.42,0-26.15-12.58-26.15-28v-3.16c-3.06-.17-6.19-2.5-6.19-8.61v-4.9c-13.37-3.54-22.69-15-22.69-27.94V79h4.13V52.54a10.65,10.65,0,0,1,8.66-10.46,6.6,6.6,0,1,1,3.57,8.28,6.48,6.48,0,0,1-3.37-3.31,5.83,5.83,0,0,0-4,5.49V79H50v4.73a15.94,15.94,0,0,0,11.57,15,18.23,18.23,0,0,0,11.13,0,15.94,15.94,0,0,0,11.61-15V79h4.12l-.09-26.45a5.85,5.85,0,0,0-3.91-5.45,6.53,6.53,0,1,1,.22-5,10.7,10.7,0,0,1,8.57,10.42L93.26,79h4.13v4.68c0,12.93-9.32,24.38-22.69,27.92v4.9c0,6.11-3.13,8.44-6.19,8.61v3.16c0,12.78,9.55,23.17,21.28,23.17s21.28-10.39,21.28-23.17v-41C111.51,77.18,119.48,69,129,69c9.87,0,17.9,8.59,17.9,19.14v3.43a14.91,14.91,0,0,1,12.23,12.5h0A14.82,14.82,0,1,1,142,91.57V88.15c0-7.87-5.85-14.27-13-14.27-7,0-12.83,6.21-13,13.83v40.54C116,143.71,104.21,156.29,89.79,156.29ZM35.51,79.73v3.91c0,12.7,9.21,23.92,22.41,27.29l.28.07v5.48c0,5.81,3,7.87,5.81,7.87h.38v3.9c0,15.05,11.39,27.29,25.4,27.29s25.41-12.24,25.41-27.29V87.7c.21-8,6.39-14.57,13.78-14.57,7.6,0,13.78,6.74,13.78,15v4.07l-.32,0a14.06,14.06,0,1,0,15.92,11.9h0a14.13,14.13,0,0,0-11.91-11.9l-.32,0V88.14c0-10.14-7.69-18.39-17.15-18.39-9.18,0-16.88,8-17.16,17.84h0v40.65c0,13.19-9.88,23.92-22,23.92s-22-10.73-22-23.92v-3.9h.38c2.81,0,5.81-2.06,5.81-7.87V111l.28-.07c13.19-3.37,22.41-14.59,22.41-27.27V79.73H92.51l-.09-27.22a9.94,9.94,0,0,0-8.17-9.72l-.22,0L84,42.53a5.78,5.78,0,1,0-.13,3.95l.12-.31.33.09A6.59,6.59,0,0,1,89,52.52l.1,27.21H85v4A16.7,16.7,0,0,1,72.87,99.46a19,19,0,0,1-11.56,0A16.69,16.69,0,0,1,49.2,83.72v-4H43V52.54a6.58,6.58,0,0,1,4.86-6.31l.32-.08.12.31a5.84,5.84,0,1,0,10.88-4.27,5.86,5.86,0,0,0-7.57-3.31,5.84,5.84,0,0,0-3.43,3.64l-.07.22-.22,0a9.91,9.91,0,0,0-8.26,9.76V79.73ZM68.13,121H64c-1.55,0-2.44-1.64-2.44-4.5v-4.8l.42,0,.28,0h.22l.45,0h.16c1.08.1,2,.14,2.92.15h.1c.88,0,1.81,0,2.91-.15l.87-.08.25,0,.42,0v4.8C70.57,119.34,69.68,121,68.13,121Zm-5.81-8.47v4c0,.88.13,3.75,1.69,3.75h4.12c1.57,0,1.69-2.87,1.69-3.75v-4l-.72.07c-1.13.1-2.07.15-3,.15H66c-.91,0-1.89,0-3-.15l-.15,0-.47,0Zm82.13,4.34h0a10.69,10.69,0,1,1,10.68-10.68A10.69,10.69,0,0,1,144.45,116.85Zm0-20.62a9.94,9.94,0,1,0,9.93,9.94A10,10,0,0,0,144.45,96.23ZM66.07,108.6c-1,0-2,0-3-.14a28.83,28.83,0,0,1-2.89-.44C47.86,105.55,38.89,95.3,38.89,83.64V83.1h6.93v.61a20,20,0,0,0,14.46,19,22.49,22.49,0,0,0,13.63,0,20,20,0,0,0,14.48-19V83.1h4.87v.54c0,11.65-9,21.91-21.34,24.38A29.53,29.53,0,0,1,66.07,108.6ZM39.64,83.85c.11,11.21,8.79,21.05,20.73,23.43a24.79,24.79,0,0,0,2.81.43,28.77,28.77,0,0,0,8.59-.42C83.71,104.9,92.4,95.06,92.51,83.85H89.13a20.79,20.79,0,0,1-15,19.54,23.22,23.22,0,0,1-14.07,0,20.76,20.76,0,0,1-15-19.53ZM78.45,46.73a2.44,2.44,0,1,1,2.44-2.44A2.44,2.44,0,0,1,78.45,46.73Zm0-4.12a1.69,1.69,0,1,0,1.69,1.68A1.69,1.69,0,0,0,78.45,42.61ZM53.7,46.73a2.44,2.44,0,1,1,2.44-2.44A2.44,2.44,0,0,1,53.7,46.73Zm0-4.12a1.69,1.69,0,1,0,1.69,1.68A1.69,1.69,0,0,0,53.7,42.61Z"/><path class="cls-2" d="M144.45,100a6.19,6.19,0,1,0,6.18,6.19A6.19,6.19,0,0,0,144.45,100Zm0,8.25a2.07,2.07,0,1,1,2.06-2.06A2.07,2.07,0,0,1,144.45,108.23Z"/>
<path class="cls-2" d="M144.45,112.73a6.57,6.57,0,1,1,6.56-6.56A6.57,6.57,0,0,1,144.45,112.73Zm0-12.38a5.82,5.82,0,1,0,5.81,5.82A5.83,5.83,0,0,0,144.45,100.35Zm0,8.25a2.44,2.44,0,1,1,2.43-2.43A2.43,2.43,0,0,1,144.45,108.6Zm0-4.12a1.69,1.69,0,1,0,0,3.37,1.69,1.69,0,0,0,0-3.37Z"/>
</svg>