<svg id="Capa_1" data-name="Capa 1" xmlns="http://www.w3.org/2000/svg" viewBox="0 0 194.02 194.02"><defs><style>.cls-1{fill:#a1aa79;}.cls-2{fill:#fff;}</style></defs><title>iconos</title><circle class="cls-1" cx="97.01" cy="97.01" r="97.01"/><path class="cls-2" d="M97.6,66.65a4.34,4.34,0,0,0,.91.6v5.86a1.82,1.82,0,0,0,3.64,0V67.25a4.09,4.09,0,0,0,.91-.6,22.25,22.25,0,0,0-.63-34.29,3.34,3.34,0,0,0-4.2,0,22.27,22.27,0,0,0-.63,34.29Zm2.73-31.31a18.61,18.61,0,0,1,1.82,27.15v-16a1.82,1.82,0,0,0-3.64,0v16a18.63,18.63,0,0,1,1.82-27.15Z"/><path class="cls-2" d="M100.33,75.75a2.65,2.65,0,0,1-2.64-2.64V67.73a4.68,4.68,0,0,1-.62-.45h0a23.09,23.09,0,0,1,.65-35.56,4.17,4.17,0,0,1,5.23,0,23.09,23.09,0,0,1,.65,35.56,4.68,4.68,0,0,1-.62.45v5.38A2.65,2.65,0,0,1,100.33,75.75Zm0-43.31a2.52,2.52,0,0,0-1.58.56,21.44,21.44,0,0,0-.61,33h0a3.54,3.54,0,0,0,.73.48l.47.23v6.37a1,1,0,0,0,2,0V66.74l.46-.23a3.36,3.36,0,0,0,.74-.48,21.44,21.44,0,0,0-.61-33A2.57,2.57,0,0,0,100.33,32.44Zm1,32.13V46.51a1,1,0,1,0-2,0V64.57l-1.43-1.52a19.45,19.45,0,0,1,1.9-28.34l.52-.43.52.43a19.44,19.44,0,0,1,1.91,28.34Zm-1-20.7A2.65,2.65,0,0,1,103,46.51V60.2a17.82,17.82,0,0,0-2.65-23.78A17.8,17.8,0,0,0,97.69,60.2V46.51A2.64,2.64,0,0,1,100.33,43.87Z"/><path class="cls-2" d="M152.05,87.46a22.26,22.26,0,0,0-34.3-.63,4.48,4.48,0,0,0-.6.91H111.3a1.82,1.82,0,1,0,0,3.64h5.85a4.48,4.48,0,0,0,.6.91A22.27,22.27,0,0,0,152,91.66,3.35,3.35,0,0,0,152.05,87.46ZM134.64,96.4a18.61,18.61,0,0,1-12.72-5h16a1.82,1.82,0,1,0,0-3.64h-16a18.6,18.6,0,0,1,27.14,1.82A18.54,18.54,0,0,1,134.64,96.4Z"/><path class="cls-2" d="M134.64,100.87a23.06,23.06,0,0,1-17.51-8,5.64,5.64,0,0,1-.46-.63H111.3a2.65,2.65,0,1,1,0-5.29h5.37a5.52,5.52,0,0,1,.46-.62,23.09,23.09,0,0,1,35.56.65h0a4.17,4.17,0,0,1,0,5.23A23,23,0,0,1,134.64,100.87ZM111.3,88.56a1,1,0,0,0,0,2h6.37l.22.46a3.22,3.22,0,0,0,.49.73,21.44,21.44,0,0,0,33-.6,2.53,2.53,0,0,0,0-3.18h0a21.44,21.44,0,0,0-33-.61,3.28,3.28,0,0,0-.49.74l-.22.46Zm23.34,8.66A19.41,19.41,0,0,1,121.35,92l-1.52-1.42h18.06a1,1,0,0,0,0-2H119.83l1.52-1.42A19.44,19.44,0,0,1,149.7,89l.42.52-.42.52A19.37,19.37,0,0,1,134.64,97.22Zm-10.44-5A17.8,17.8,0,0,0,148,89.56a17.82,17.82,0,0,0-23.78-2.65h13.69a2.65,2.65,0,1,1,0,5.29Z"/><path class="cls-2" d="M111,78.1a1.82,1.82,0,0,0,1.29-.53l4.14-4.14a4.73,4.73,0,0,0,1.07.22q.84.06,1.68.06A22.26,22.26,0,0,0,141.29,49a3.35,3.35,0,0,0-3-3,22.25,22.25,0,0,0-24.69,23.81,3.78,3.78,0,0,0,.22,1.06L109.71,75A1.82,1.82,0,0,0,111,78.1Zm11.67-23.16a18.49,18.49,0,0,1,13.14-5.46,17.41,17.41,0,0,1,1.9.1,18.62,18.62,0,0,1-17.91,20.48l11.3-11.3a1.82,1.82,0,1,0-2.58-2.57L117.22,67.48A18.56,18.56,0,0,1,122.66,54.94Z"/><path class="cls-2" d="M111,78.92a2.59,2.59,0,0,1-1.86-.77,2.65,2.65,0,0,1,0-3.74l3.79-3.8a5,5,0,0,1-.11-.76,23.08,23.08,0,0,1,25.6-24.69,4.18,4.18,0,0,1,3.7,3.7,23.09,23.09,0,0,1-22.94,25.67c-.58,0-1.17,0-1.74-.06a5.13,5.13,0,0,1-.77-.12l-3.8,3.8A2.6,2.6,0,0,1,111,78.92ZM135.8,46.66a21.44,21.44,0,0,0-21.35,23.06,3.22,3.22,0,0,0,.18.86l.16.49-4.5,4.5a1,1,0,0,0,0,1.42,1,1,0,0,0,1.41,0l4.5-4.51.49.17a3.66,3.66,0,0,0,.86.18q.81.06,1.62.06A21.44,21.44,0,0,0,140.47,49a2.52,2.52,0,0,0-2.24-2.24A22,22,0,0,0,135.8,46.66ZM117.74,71l12.77-12.77a1,1,0,0,0,0-1.41,1,1,0,0,0-1.42,0L116.33,69.54l.06-2.08a19.4,19.4,0,0,1,5.69-13.1h0a19.32,19.32,0,0,1,15.7-5.6l.67.07.07.67a19.44,19.44,0,0,1-18.7,21.38ZM129.8,54.83a2.63,2.63,0,0,1,1.87.78,2.6,2.6,0,0,1,.77,1.87,2.63,2.63,0,0,1-.77,1.87L122,69a17.79,17.79,0,0,0,14.94-18.68,17.62,17.62,0,0,0-13.69,5.18h0a17.76,17.76,0,0,0-5,9.76l9.68-9.67A2.63,2.63,0,0,1,129.8,54.83Z"/><path class="cls-2" d="M80.41,71.55q.84,0,1.68-.06a4.08,4.08,0,0,0,1.06-.23L87.3,75.4a1.79,1.79,0,0,0,1.28.54,1.83,1.83,0,0,0,1.29-3.11l-4.14-4.14A4.15,4.15,0,0,0,86,67.62a22.31,22.31,0,0,0-1.69-10.34,1.82,1.82,0,1,0-3.35,1.41,18.83,18.83,0,0,1,1.45,6.63L71.06,54a1.82,1.82,0,0,0-2.57,2.58l11.3,11.3A18.63,18.63,0,0,1,61.88,47.41a18.55,18.55,0,0,1,15,5.37,1.82,1.82,0,0,0,2.57-2.58,22.17,22.17,0,0,0-18.23-6.38,3.36,3.36,0,0,0-3,3A22.26,22.26,0,0,0,80.41,71.55Z"/><path class="cls-2" d="M88.58,76.76A2.63,2.63,0,0,1,86.71,76l-3.8-3.8a4.81,4.81,0,0,1-.76.12q-.87.06-1.74.06A23.07,23.07,0,0,1,57.47,46.7,4.17,4.17,0,0,1,61.16,43a23,23,0,0,1,18.91,6.62,2.63,2.63,0,0,1,0,3.74,2.7,2.7,0,0,1-3.73,0,17.72,17.72,0,0,0-13.7-5.18,17.8,17.8,0,0,0,15,18.68l-9.68-9.68a2.64,2.64,0,0,1,3.74-3.74l9.67,9.68A17.38,17.38,0,0,0,80.15,59a2.64,2.64,0,0,1,3.43-3.47A2.58,2.58,0,0,1,85,57a23.13,23.13,0,0,1,1.75,10.72,4.94,4.94,0,0,1-.12.77l3.8,3.8a2.65,2.65,0,0,1,0,3.74A2.62,2.62,0,0,1,88.58,76.76Zm-5.21-6.44,4.51,4.5a1,1,0,0,0,1.41,0,1,1,0,0,0,0-1.41l-4.51-4.5.17-.49a3.22,3.22,0,0,0,.18-.86,21.61,21.61,0,0,0-1.62-10,1,1,0,0,0-.55-.54,1,1,0,0,0-.76,0,1,1,0,0,0-.53,1.3,19.48,19.48,0,0,1,1.51,6.92l.07,2.09L70.48,54.61a1,1,0,0,0-1.41,0,1,1,0,0,0,0,1.41L81.84,68.79l-2.08-.07a19.44,19.44,0,0,1-18.7-21.39l.07-.67.67-.06a19.37,19.37,0,0,1,15.7,5.59,1,1,0,0,0,1.41,0,1,1,0,0,0,0-1.41,21.35,21.35,0,0,0-17.56-6.14,2.53,2.53,0,0,0-2.25,2.24A21.45,21.45,0,0,0,80.41,70.73q.81,0,1.62-.06a4.25,4.25,0,0,0,.86-.18Z"/><path class="cls-2" d="M102.9,80.43a7.38,7.38,0,0,0-6.75-.92l-33.55,12a8.14,8.14,0,0,0-5.39,7.66v34.43a11.2,11.2,0,0,0-7.41,3.52,11.17,11.17,0,0,0,7.38,18.76c.27,0,.53,0,.8,0a11.07,11.07,0,0,0,7.61-3,11.2,11.2,0,0,0,3.55-8.17V131a1.82,1.82,0,1,0-3.64,0v13.71a7.53,7.53,0,0,1-8.07,7.51,7.53,7.53,0,0,1,.54-15,8.4,8.4,0,0,1,.85.05,1.8,1.8,0,0,0,1.42-.45,1.82,1.82,0,0,0,.61-1.36V99.18a4.5,4.5,0,0,1,3-4.23l33.54-12a3.76,3.76,0,0,1,5,3.54v44.67a7.53,7.53,0,1,1-7.53-7.53,8.59,8.59,0,0,1,.86,0,1.82,1.82,0,0,0,2-1.81V93a3.67,3.67,0,0,0-4.9-3.47l-23.19,8.2a6.26,6.26,0,0,0-4.16,5.89V124a1.82,1.82,0,0,0,3.64,0V103.62a2.62,2.62,0,0,1,1.74-2.46L94.06,93h0s0,0,0,0v27a11.17,11.17,0,0,0-7.4,3.52,11,11,0,0,0-3,8.41,11.19,11.19,0,0,0,10.36,10.35,11.06,11.06,0,0,0,8.4-3,11.23,11.23,0,0,0,3.56-8.17V86.48A7.41,7.41,0,0,0,102.9,80.43Z"/><path class="cls-2" d="M58,156.74l-.85,0a12,12,0,0,1-.75-23.86V99.18a9,9,0,0,1,5.95-8.44l33.54-12a8.21,8.21,0,0,1,7.51,1h0a8.23,8.23,0,0,1,3.49,6.72v44.67a12,12,0,0,1-3.81,8.77,12,12,0,1,1-9.77-20.66V94.11l-22.14,7.83A1.79,1.79,0,0,0,70,103.62V124a2.65,2.65,0,0,1-5.29,0V103.62A7.1,7.1,0,0,1,69.39,97l23.18-8.19a4.47,4.47,0,0,1,4.1.56A4.53,4.53,0,0,1,98.57,93v28.86a2.65,2.65,0,0,1-2.93,2.63,6.78,6.78,0,0,0-.77,0,6.73,6.73,0,0,0-6.69,7.19,6.72,6.72,0,0,0,6.21,6.21,6.71,6.71,0,0,0,7.19-6.69V86.48a2.88,2.88,0,0,0-1.25-2.4,2.91,2.91,0,0,0-2.68-.37l-33.54,12a3.68,3.68,0,0,0-2.44,3.46v36.28a2.65,2.65,0,0,1-2.94,2.63A6.76,6.76,0,0,0,58,138a6.7,6.7,0,1,0,6.71,6.71V131A2.64,2.64,0,1,1,70,131v13.71a12,12,0,0,1-12,12ZM98.64,79.9a6.53,6.53,0,0,0-2.22.39l-33.54,12A7.34,7.34,0,0,0,58,99.18v35.19l-.77.06a10.35,10.35,0,1,0,11.06,10.32V131a1,1,0,0,0-2,0v13.71A8.36,8.36,0,1,1,58,136.4c.3,0,.62,0,1,0a1,1,0,0,0,.77-.24,1,1,0,0,0,.33-.75V99.18a5.34,5.34,0,0,1,3.53-5l33.55-12a4.58,4.58,0,0,1,6.13,4.31v44.67a8.36,8.36,0,1,1-8.36-8.35c.31,0,.62,0,.95,0a1,1,0,0,0,.78-.24,1,1,0,0,0,.33-.75V93a2.86,2.86,0,0,0-3.81-2.69l-23.18,8.2a5.42,5.42,0,0,0-3.62,5.11V124a1,1,0,0,0,2,0V103.62a3.43,3.43,0,0,1,2.28-3.23l23.58-8.34.74.48v28.24l-.76.06a10.35,10.35,0,1,0,11,10.32V86.48a6.58,6.58,0,0,0-2.79-5.38h0A6.58,6.58,0,0,0,98.64,79.9Z"/></svg>