<svg id="Capa_1" data-name="Capa 1" xmlns="http://www.w3.org/2000/svg" viewBox="0 0 194.02 194.02"><defs><style>.cls-1{fill:#a1aa79;}.cls-2{fill:#fff;}</style></defs><title>iconos</title><circle class="cls-1" cx="97.01" cy="97.01" r="97.01"/><path class="cls-2" d="M143.11,116.87a29.64,29.64,0,0,1-10.68-17l-.7-3.23a26.37,26.37,0,0,0-15-18.52A14,14,0,0,0,123,66.43V59.16A26.12,26.12,0,0,0,108.1,35.63a2.3,2.3,0,1,0-2,4.16,21.5,21.5,0,0,1,12.29,19.37v7.27a9.38,9.38,0,0,1-9.37,9.37H107a15.16,15.16,0,0,0,5.31-11.53V57a2.3,2.3,0,0,0-2.3-2.3h-4.29A5.2,5.2,0,0,1,101.79,53a10.69,10.69,0,0,0,.94-4.38,2.3,2.3,0,0,0-4.6,0A6.13,6.13,0,0,1,92,54.73H84.12a2.3,2.3,0,0,0-2.3,2.3v7.24A15.16,15.16,0,0,0,87.13,75.8H85a9.38,9.38,0,0,1-9.37-9.37V59.16A21.49,21.49,0,0,1,87.92,39.8a2.3,2.3,0,0,0-2-4.15,26.11,26.11,0,0,0-14.9,23.51v7.27A14,14,0,0,0,77.36,78.1,26.42,26.42,0,0,0,62.3,96.64l-.7,3.23a29.7,29.7,0,0,1-10.69,17A8.76,8.76,0,0,0,53.31,132a12.25,12.25,0,0,0,10.33,18.83h66.75a12.25,12.25,0,0,0,12-14.89,12.29,12.29,0,0,0-1.63-3.94,8.76,8.76,0,0,0,2.4-15.17ZM93.07,79A15.13,15.13,0,0,0,101,79v2.45a4,4,0,1,1-7.94,0ZM86.42,59.33H92a10.7,10.7,0,0,0,7-2.61,9.82,9.82,0,0,0,6.66,2.61h2v4.94a10.62,10.62,0,1,1-21.24,0V59.33ZM66.09,100.85l.7-3.24A21.83,21.83,0,0,1,88.13,80.4h.34v1a8.57,8.57,0,0,0,17.14,0v-1h.28a21.83,21.83,0,0,1,21.34,17.21l.7,3.24a34.1,34.1,0,0,0,7.54,15.05l-5.91,5.91a42.49,42.49,0,0,1-9.75-19.2l-.7-3.24a2.3,2.3,0,0,0-4.55.49v28.26l-17.55,2-17.55-2V99.86a2.3,2.3,0,0,0-4.54-.49l-.71,3.24a42.53,42.53,0,0,1-9.72,19.17l-5.91-5.91a34.21,34.21,0,0,0,7.51-15Zm53.07,13.68a47,47,0,0,0,7.1,10.49c.49.54,1,1.07,1.49,1.59l-8.59,1V114.53ZM74.27,146.27a4.43,4.43,0,0,1-3.43-1.62,4.45,4.45,0,0,1,2.92-7.24l19-2.18v11ZM67.76,125a47,47,0,0,0,7.1-10.49v13.06l-8.59-1C66.78,126.09,67.28,125.56,67.76,125Zm-14-4.53c.55-.43,1.09-.88,1.61-1.35l5.9,5.9c-.79.72-1.61,1.41-2.45,2.06a4.1,4.1,0,0,1-3.38.78,4.17,4.17,0,0,1-1.68-7.39Zm3.93,22.92A7.64,7.64,0,0,1,64.51,131l12.28,1.41-3.55.41a9,9,0,0,0-6.85,13.42H63.64A7.58,7.58,0,0,1,57.68,143.41Zm78.67,0a7.6,7.6,0,0,1-6,2.86h-33V134.71L129.52,131a8.65,8.65,0,0,1,.88-.05,7.65,7.65,0,0,1,5.95,12.43Zm5.06-17.64a4.19,4.19,0,0,1-2.82,2.11,4.1,4.1,0,0,1-3.38-.78c-.83-.64-1.63-1.32-2.41-2l5.9-5.9c.51.46,1,.89,1.57,1.32A4.19,4.19,0,0,1,141.41,125.77Z"/><path class="cls-2" d="M97,37.75a2.29,2.29,0,1,0-1.63-.67A2.3,2.3,0,0,0,97,37.75Z"/></svg>