<svg id="Capa_1" data-name="Capa 1" xmlns="http://www.w3.org/2000/svg" viewBox="0 0 194.02 194.02"><defs><style>.cls-1{fill:#a1aa79;}.cls-2{fill:#fff;}</style></defs><title>iconos</title><circle class="cls-1" cx="97.01" cy="97.01" r="97.01"/><path class="cls-2" d="M140.77,113.69a6.9,6.9,0,0,0,.3-6.76l-5.43-10.85-.84-8.92a41.46,41.46,0,0,0-13-30,41.3,41.3,0,0,0-62.7,52.91,38.09,38.09,0,0,1,3.36,6.25l2.86,6.79A59.63,59.63,0,0,1,70,146.31a1.76,1.76,0,0,0,1.77,1.76h43.52a1.76,1.76,0,0,0,1.71-2.19l-2.56-10.24h4.8a13.37,13.37,0,0,0,13.36-13.35V117h2.27A6.91,6.91,0,0,0,140.77,113.69Zm-10-.24a1.77,1.77,0,0,0-1.77,1.77v7.07a9.82,9.82,0,0,1-9.82,9.81h-7.06a1.78,1.78,0,0,0-1.4.68,1.8,1.8,0,0,0-.32,1.52L113,144.54H73.49a62.73,62.73,0,0,0-4.94-22.81l-2.85-6.79A41.24,41.24,0,0,0,62,108.11a37.76,37.76,0,1,1,69.24-20.86v.16l.88,9.33a2.21,2.21,0,0,0,.18.62l5.58,11.15a3.41,3.41,0,0,1-3.06,4.94Z"/><path class="cls-2" d="M115.27,148.45H71.75a2.14,2.14,0,0,1-2.14-2.14A59.18,59.18,0,0,0,65,123.24l-2.86-6.78a37.27,37.27,0,0,0-3.32-6.19A41.67,41.67,0,0,1,122,56.88a41.88,41.88,0,0,1,13.14,30.28L136,96l5.4,10.79a7.28,7.28,0,0,1-.33,7.13h0a7.28,7.28,0,0,1-6.23,3.47H133v4.93A13.74,13.74,0,0,1,119.22,136H114.9l2.44,9.78a2.08,2.08,0,0,1-.39,1.83A2.14,2.14,0,0,1,115.27,148.45ZM93.54,46.33c-.88,0-1.76,0-2.64.08a40.92,40.92,0,0,0-31.5,63.45,38.25,38.25,0,0,1,3.38,6.3L65.64,123a59.9,59.9,0,0,1,4.72,23.36,1.39,1.39,0,0,0,1.39,1.39h43.52a1.41,1.41,0,0,0,1.35-1.73l-2.68-10.71h5.28a13,13,0,0,0,13-13v-5.68h2.65a6.53,6.53,0,0,0,5.6-3.12h0a6.53,6.53,0,0,0,.28-6.39l-5.46-11-.84-8.91a41.15,41.15,0,0,0-12.91-29.78A40.51,40.51,0,0,0,93.54,46.33Zm19.94,98.58H73.13v-.36a62.84,62.84,0,0,0-4.91-22.68l-2.86-6.79a40.84,40.84,0,0,0-3.64-6.76,38.14,38.14,0,1,1,69.93-21.07.49.49,0,0,0,0,.12l.88,9.33a1.2,1.2,0,0,0,.14.49l5.57,11.15a3.79,3.79,0,0,1-3.39,5.49h-4a1.4,1.4,0,0,0-1.4,1.39v7.07a10.2,10.2,0,0,1-10.19,10.19h-7.06a1.38,1.38,0,0,0-1.35,1.73Zm-39.63-.75h38.67l-2.44-9.77a2.14,2.14,0,0,1,2.08-2.66h7.06a9.45,9.45,0,0,0,9.44-9.44v-7.07a2.15,2.15,0,0,1,2.15-2.14h4a3,3,0,0,0,2.72-4.4L132,97.53a2.22,2.22,0,0,1-.22-.76l-.88-9.32a1.41,1.41,0,0,1,0-.2A37.39,37.39,0,1,0,62.34,107.9a41.61,41.61,0,0,1,3.7,6.89l2.86,6.79A63.26,63.26,0,0,1,73.85,144.16Z"/><path class="cls-2" d="M93.51,56a31.3,31.3,0,1,0,31.29,31.3A31.33,31.33,0,0,0,93.51,56Zm0,59.06a27.77,27.77,0,1,1,27.76-27.76A27.8,27.8,0,0,1,93.51,115Z"/><path class="cls-2" d="M93.51,118.92a31.66,31.66,0,1,1,31.67-31.67A31.71,31.71,0,0,1,93.51,118.92Zm0-62.6a31,31,0,1,0,21.85,9.07A31,31,0,0,0,93.51,56.32Zm0,59.06a28.14,28.14,0,1,1,28.13-28.13A28.17,28.17,0,0,1,93.51,115.38Zm0-55.52a27.39,27.39,0,1,0,27.38,27.39A27.41,27.41,0,0,0,93.51,59.86Z"/><path class="cls-2" d="M102.29,84.07c-1-8-8.42-13.94-8.75-14.2a1.78,1.78,0,0,0-2.25,0c-.3.25-7.14,6.16-8.19,13.89a29.17,29.17,0,0,0-9.84.57,1.76,1.76,0,0,0-1.32,1.82c0,.45.72,11.16,7.82,16.34a17.85,17.85,0,0,0,9.41,3.13h.13a1.85,1.85,0,0,0,.42-.06,31.45,31.45,0,0,0,5,.39c3.74,0,8.67-.66,12.53-3.47,7.1-5.18,7.8-15.89,7.82-16.34a1.76,1.76,0,0,0-1.32-1.82,28.4,28.4,0,0,0-11.46-.3ZM92.48,73.66c2,1.92,6,6.35,6.35,11.46a14.45,14.45,0,0,0-3,1.7,14.77,14.77,0,0,0-2.3,2.09,14.48,14.48,0,0,0-2.29-2.09,15.6,15.6,0,0,0-4.63-2.28C87.12,79.74,90.64,75.55,92.48,73.66ZM75.65,87.5c2.84-.46,9.12-1,13.48,2.17a11.9,11.9,0,0,1,2.25,2.19A30.14,30.14,0,0,0,87.93,102a13.59,13.59,0,0,1-6.09-2.3c-4.34-3.16-5.76-9.32-6.19-12.17Zm29.52,12.17c-4.34,3.16-10.73,2.93-13.7,2.6.5-3,2.06-9.42,6.41-12.6S108.51,87,111.36,87.5C110.93,90.36,109.51,96.51,105.17,99.67Z"/><path class="cls-2" d="M94.72,106.37a32.27,32.27,0,0,1-5-.38,2,2,0,0,1-.59.05,18.19,18.19,0,0,1-9.61-3.21c-7.24-5.27-8-16.16-8-16.62A2.15,2.15,0,0,1,73.17,84a29.49,29.49,0,0,1,9.61-.62c1.23-7.72,8-13.52,8.27-13.77a2.14,2.14,0,0,1,2.72,0c.31.24,7.6,6.1,8.83,14a29,29,0,0,1,11.25.38,2.16,2.16,0,0,1,1.6,2.2c0,.46-.73,11.34-8,16.62C103.46,105.76,98.32,106.37,94.72,106.37Zm-5-1.14h.07a32.21,32.21,0,0,0,4.94.38c3.49,0,8.46-.59,12.31-3.39,7-5.08,7.64-15.62,7.67-16.07a1.38,1.38,0,0,0-1-1.42,27.93,27.93,0,0,0-11.3-.31l-.39.08,0-.39c-1-7.85-8.31-13.71-8.62-14a1.39,1.39,0,0,0-1.76,0c-.29.25-7,6-8.07,13.66l0,.37-.37,0a28.63,28.63,0,0,0-9.7.56,1.38,1.38,0,0,0-1,1.42c0,.45.72,11,7.67,16.06a17.46,17.46,0,0,0,9.22,3.07h.1a1.35,1.35,0,0,0,.33,0Zm5.08-2.4a31.66,31.66,0,0,1-3.36-.18l-.4-.05.07-.39c.57-3.43,2.19-9.65,6.56-12.84s10.49-2.76,13.76-2.24l.37.06-.05.37c-.51,3.27-2,9.24-6.35,12.41C102.25,102.27,98.1,102.83,94.79,102.83Zm-2.88-.89c2.82.27,8.94.42,13-2.57h0c4.09-3,5.52-8.82,6-11.56-2.74-.39-8.74-.81-12.83,2.16S92.43,99.07,91.91,101.94Zm-3.66.46-.37-.06A13.88,13.88,0,0,1,81.62,100c-4.35-3.17-5.84-9.14-6.34-12.42l-.06-.36.37-.06c3.26-.53,9.39-.95,13.76,2.24a12.32,12.32,0,0,1,2.32,2.26l.16.2-.13.22a29.45,29.45,0,0,0-3.39,10ZM76.08,87.81c.46,2.74,1.89,8.57,6,11.56a12.78,12.78,0,0,0,5.55,2.17,30.48,30.48,0,0,1,3.3-9.64,11.36,11.36,0,0,0-2-1.93C84.8,87,78.82,87.41,76.08,87.81ZM93.5,89.47l-.28-.31a14,14,0,0,0-2.23-2,15.13,15.13,0,0,0-4.52-2.22l-.3-.09,0-.31c.54-4.85,4-9,6-11.1l.26-.27.27.26c1.81,1.74,6.07,6.36,6.47,11.7l0,.27-.25.11a14.58,14.58,0,0,0-3,1.65,14.21,14.21,0,0,0-2.24,2ZM87,84.28a15.81,15.81,0,0,1,4.44,2.23,14.71,14.71,0,0,1,2.07,1.85,14.91,14.91,0,0,1,2.08-1.85,15.87,15.87,0,0,1,2.86-1.63c-.48-4.73-4.12-8.87-6-10.69C90.85,75.93,87.61,79.85,87,84.28Z"/></svg>