<svg id="Capa_1" data-name="Capa 1" xmlns="http://www.w3.org/2000/svg" viewBox="0 0 194.02 194.02"><defs><style>.cls-1{fill:#a1aa79;}.cls-2{fill:#fff;}</style></defs><title>iconos</title><circle class="cls-1" cx="97.01" cy="97.01" r="97.01"/><path class="cls-2" d="M115.79,53.37c.29-.29.57-.58.83-.88,2.35-2.72,3.14-5.61,2.22-8.14-1.79-4.9-9.5-6.45-17.56-3.52-7,2.55-11.62,7.52-11.54,12-6.84,1.93-10.88,5.35-10.88,9.33,0,6.21,9.91,10.89,23,10.89s23-4.68,23-10.89C125,58.53,121.59,55.36,115.79,53.37ZM102.5,44.18a19.87,19.87,0,0,1,6.73-1.27c3.29,0,5.68,1.07,6.27,2.66.45,1.24-.13,2.91-1.58,4.59A18.15,18.15,0,0,1,106.44,55c-6.5,2.37-12.07,1.17-13-1.39S96,46.54,102.5,44.18ZM116.24,67a37.72,37.72,0,0,1-14.33,2.52A37.55,37.55,0,0,1,87.57,67c-3.22-1.39-5.15-3.18-5.15-4.81,0-2.21,3.33-4.53,8.41-5.94,1.64,2.34,4.92,3.6,8.9,3.6a23.45,23.45,0,0,0,7.92-1.48,25.37,25.37,0,0,0,4.71-2.28c5.43,1.39,9,3.8,9,6.1C121.39,63.79,119.47,65.58,116.24,67Z"/><path class="cls-2" d="M101.91,73.91C88.06,73.91,78,69,78,62.16c0-4.27,3.95-7.89,10.89-10C89.24,47.46,94.1,42.54,101,40a22.05,22.05,0,0,1,11.59-1.22c3.59.72,6.1,2.58,7.07,5.25s.19,6-2.35,8.95c5.43,2.15,8.51,5.44,8.51,9.15C125.81,69,115.76,73.91,101.91,73.91Zm7.29-33.7a22.48,22.48,0,0,0-7.62,1.43c-6.54,2.38-11.06,7-11,11.18v.66l-.64.18c-6.42,1.81-10.25,5-10.25,8.5,0,5.62,9.75,10,22.19,10s22.18-4.41,22.18-10c0-3.2-3.12-6.11-8.57-8l-1.31-.45,1-1c.27-.28.53-.55.78-.83,2.14-2.48,2.87-5.06,2.06-7.28s-2.81-3.56-5.78-4.15A15,15,0,0,0,109.2,40.21Zm-7.29,30.14a38.46,38.46,0,0,1-14.67-2.59c-3.61-1.55-5.67-3.59-5.67-5.6,0-2.67,3.37-5.19,9-6.76l.59-.17.34.5C93,57.78,96,59,99.73,59a22.56,22.56,0,0,0,7.63-1.43,24.45,24.45,0,0,0,4.54-2.2l.31-.2.36.09c6,1.53,9.68,4.19,9.68,6.94,0,2-2.06,4-5.67,5.6A38.46,38.46,0,0,1,101.91,70.35ZM90.51,57.21c-5,1.48-7.23,3.58-7.23,4.95,0,.94,1.22,2.55,4.63,4a36.81,36.81,0,0,0,14,2.45,36.72,36.72,0,0,0,14-2.45c3.42-1.47,4.63-3.08,4.63-4,0-1.52-2.76-3.76-8-5.18A25.61,25.61,0,0,1,108,59.14a24.27,24.27,0,0,1-8.22,1.54C95.69,60.68,92.37,59.42,90.51,57.21Zm9.2-.09a14.21,14.21,0,0,1-2-.13c-2.65-.37-4.51-1.5-5.09-3.1-1.1-3,2.49-7.94,9.57-10.52h0a21,21,0,0,1,7-1.32c3.64,0,6.35,1.24,7.07,3.23.56,1.54-.07,3.52-1.73,5.44a19,19,0,0,1-7.84,5.08A20.87,20.87,0,0,1,99.71,57.12Zm9.52-13.35A19,19,0,0,0,102.8,45h0c-6.24,2.27-9.23,6.44-8.55,8.32.35.95,1.77,1.71,3.72,2a17.58,17.58,0,0,0,8.17-1.11,17.3,17.3,0,0,0,7.13-4.58c1.23-1.42,1.75-2.81,1.42-3.73S112.47,43.77,109.23,43.77Z"/><path class="cls-2" d="M150.91,114.15a14.27,14.27,0,0,0-8-4.16,9.53,9.53,0,0,0-6.14,1.11,26.18,26.18,0,0,0-7.08-5,9.2,9.2,0,0,0,2.38-6c0-5.83-6.33-10.92-16.77-13.75a36.08,36.08,0,0,0,3.39-2.8c4.54-4.26,6.32-8.57,5-12.13a6.37,6.37,0,0,0-.33-.77l-3.17,1.61c.06.12.11.24.16.37,1.55,4.27-6.29,12.51-20,17.51s-25,3.72-26.6-.55C72.36,85.88,78.07,79.61,87,75l-1.63-3.16a39.72,39.72,0,0,0-12,8.89c-3.27,3.82-3.72,6.87-3.33,9-5.21,2.84-8,6.48-8,10.38a9.17,9.17,0,0,0,2.37,6c-4.35,2.23-7.51,4.89-9.21,7.8l3.08,1.79c1.49-2.56,4.57-5,8.93-7a27.82,27.82,0,0,0,5.64,3.15c6.49,2.78,15.08,4.32,24.19,4.32s17.7-1.54,24.2-4.32a28,28,0,0,0,5.63-3.15,25,25,0,0,1,7.28,4.87c-2,3-1.95,7.26.07,11.06-5.93,6.24-20.9,10.52-37.18,10.52-11.86,0-23.06-2.19-30.72-6a28.71,28.71,0,0,1-2.71-1.52,7,7,0,0,0,.2-1.65c0-5-5.47-8.9-12.45-8.9s-12.46,3.9-12.46,8.9,5.47,8.89,12.46,8.89c4.49,0,8.36-1.62,10.55-4.1.88.54,1.82,1.07,2.82,1.57,8.14,4.06,19.92,6.39,32.31,6.39a85.3,85.3,0,0,0,25-3.49c6.24-2,11.11-4.57,14.26-7.63.2.21.39.43.6.64a14.25,14.25,0,0,0,8,4.15,11,11,0,0,0,1.5.1,8.64,8.64,0,0,0,6.27-2.47C156.57,126.1,155.77,119,150.91,114.15Zm-31.1-5.61c-6.06,2.6-14.15,4-22.79,4s-16.73-1.43-22.79-4c-5.5-2.36-8.66-5.43-8.66-8.43,0-2.5,2.13-5,6-7.17,2,2.3,5.54,3.68,10.4,4,.6,0,1.21,0,1.84,0a53.42,53.42,0,0,0,17.68-3.45A60.83,60.83,0,0,0,111.15,89c10.38,2.16,17.32,6.57,17.32,11.08C128.47,103.11,125.31,106.18,119.81,108.54ZM51.34,131.25c-4.83,0-8.9-2.44-8.9-5.33s4.07-5.34,8.9-5.34,8.89,2.44,8.89,5.34S56.16,131.25,51.34,131.25Zm98.84-3.8a5.55,5.55,0,0,1-4.79,1.36,10.63,10.63,0,0,1-6-3.14c-3.47-3.47-4.27-8.31-1.78-10.79a5.22,5.22,0,0,1,3.77-1.43,8.72,8.72,0,0,1,1,.07,10.69,10.69,0,0,1,6,3.14C151.86,120.13,152.66,125,150.18,127.45Z"/><path class="cls-2" d="M97,139.53c-12.52,0-24.44-2.36-32.69-6.48-.8-.4-1.57-.82-2.29-1.25a15.35,15.35,0,0,1-10.7,3.87c-7.47,0-13.32-4.28-13.32-9.75s5.85-9.76,13.32-9.76,13.31,4.28,13.31,9.76a7.29,7.29,0,0,1-.1,1.23c.67.41,1.39.8,2.14,1.18,7.54,3.76,18.6,5.92,30.33,5.92,15.66,0,30-3.93,36.13-9.83-1.79-3.73-1.83-7.74-.12-10.76a24.25,24.25,0,0,0-6.09-4,30.24,30.24,0,0,1-5.39,2.94C115,115.43,106.25,117,97,117s-17.94-1.55-24.53-4.38a30.24,30.24,0,0,1-5.39-2.94c-4,1.9-6.75,4.12-8.1,6.44l-.43.74L54,114.18l.43-.74c1.64-2.82,4.62-5.45,8.64-7.65a9.64,9.64,0,0,1-1.92-5.68c0-4.06,2.83-7.89,8-10.84-.22-2.11.33-5.25,3.61-9.08A40.59,40.59,0,0,1,85,71.09l.76-.39,2.42,4.69-.77.39c-9.25,4.77-13.88,10.73-12.87,13.53,1.25,3.43,11.55,5.11,25.49,0s20.76-13,19.51-16.42a2.21,2.21,0,0,0-.12-.27L119,71.9l4.71-2.39.39.76a6.48,6.48,0,0,1,.37.87c1.42,3.9-.44,8.54-5.24,13-.65.6-1.35,1.21-2.1,1.81,9.89,3,15.74,8.25,15.74,14.11a9.66,9.66,0,0,1-1.92,5.68,27,27,0,0,1,5.93,4.25,10.56,10.56,0,0,1,6.09-.9,15.17,15.17,0,0,1,8.54,4.4h0a15,15,0,0,1,4.41,8.79,9.82,9.82,0,0,1-2.63,8.25,9.49,9.49,0,0,1-6.88,2.72,12.72,12.72,0,0,1-1.62-.11,15.08,15.08,0,0,1-8.54-4.4l0,0c-3.25,2.9-8,5.39-14,7.24A86,86,0,0,1,97,139.53Zm-35.3-9.94.62.39q1.29.79,2.76,1.53c8,4,19.66,6.3,31.92,6.3a84.16,84.16,0,0,0,24.73-3.45c6.06-1.9,10.88-4.47,13.92-7.43l.65-.62.59.67q.27.3.57.6a13.41,13.41,0,0,0,7.55,3.91,7.75,7.75,0,0,0,9.19-9,13.25,13.25,0,0,0-3.92-7.77h0a13.34,13.34,0,0,0-7.55-3.9,8.63,8.63,0,0,0-5.59,1l-.58.34-.47-.49a25.21,25.21,0,0,0-6.85-4.85l-1-.49.69-.83a8.34,8.34,0,0,0,2.18-5.41c0-5.36-6-10.19-16.13-12.92l-1.73-.47,1.44-1.06a35.07,35.07,0,0,0,3.32-2.73c4.21-4,5.92-7.88,4.84-11.08l-1.67.84C122.67,78,113.39,86.3,100.6,91c-13.07,4.76-25.75,4.27-27.69-1.06-1.49-4.08,3.93-10.42,12.93-15.24L85,73a38.1,38.1,0,0,0-11,8.29c-2.51,2.94-3.59,5.79-3.13,8.26l.11.62-.55.29c-4.9,2.68-7.61,6.09-7.61,9.63a8.39,8.39,0,0,0,2.18,5.41l.69.83-1,.49a22.34,22.34,0,0,0-8.39,6.74l1.59.93c1.7-2.44,4.74-4.71,8.85-6.63l.46-.21.41.3a26.92,26.92,0,0,0,5.46,3c6.39,2.74,14.86,4.25,23.86,4.25s17.47-1.51,23.86-4.25a27.41,27.41,0,0,0,5.46-3l.41-.3.46.22a25.17,25.17,0,0,1,7.53,5l.49.5-.39.58c-1.83,2.7-1.79,6.6.12,10.17l.29.55-.43.45C128.69,131.63,113.5,136,97,136c-12,0-23.32-2.23-31.1-6.11a31.81,31.81,0,0,1-2.79-1.56L62.6,128l.15-.6a6,6,0,0,0,.19-1.44c0-4.51-5.1-8-11.6-8s-11.61,3.53-11.61,8,5.1,8,11.61,8c4.1,0,7.8-1.43,9.9-3.82Zm-10.38,2.52c-5.39,0-9.76-2.78-9.76-6.19s4.37-6.2,9.76-6.2,9.75,2.78,9.75,6.2S56.72,132.11,51.34,132.11Zm0-10.68c-4.29,0-8.05,2.1-8.05,4.49s3.76,4.48,8.05,4.48,8-2.1,8-4.48S55.62,121.43,51.34,121.43Zm95.06,8.31a9,9,0,0,1-1.13-.08,11.53,11.53,0,0,1-6.49-3.38c-3.8-3.8-4.6-9.19-1.78-12a6.37,6.37,0,0,1,5.51-1.6,11.49,11.49,0,0,1,6.49,3.39c3.8,3.8,4.6,9.18,1.78,12A6,6,0,0,1,146.4,129.74Zm-5-15.43a4.37,4.37,0,0,0-3.17,1.18c-2.14,2.15-1.34,6.44,1.79,9.57a9.77,9.77,0,0,0,5.5,2.9,4.71,4.71,0,0,0,4.07-1.11h0c2.15-2.15,1.35-6.45-1.78-9.58a9.82,9.82,0,0,0-5.51-2.9A7,7,0,0,0,141.38,114.31ZM97,113.42c-8.75,0-17-1.45-23.13-4.09-5.83-2.5-9.17-5.86-9.17-9.22,0-2.85,2.24-5.58,6.48-7.92l.61-.34.46.54c1.81,2.13,5.19,3.39,9.79,3.65,5.56.31,12.45-.9,19.17-3.35a58.6,58.6,0,0,0,9.49-4.4l.28-.16.32.06c10.94,2.28,18,7,18,11.92,0,3.36-3.34,6.72-9.17,9.22h0C114,112,105.77,113.42,97,113.42ZM71.44,94c-3.23,1.9-5,4-5,6.08,0,2.6,3,5.46,8.14,7.64,6,2.55,13.92,4,22.45,4s16.5-1.41,22.45-4l.34.79-.34-.79c5.1-2.18,8.14-5,8.14-7.64,0-4-6.7-8.11-16.32-10.17a60.89,60.89,0,0,1-9.47,4.37c-7,2.55-14,3.77-19.85,3.44C77.25,97.49,73.64,96.21,71.44,94Z"/></svg>