<svg id="Capa_1" data-name="Capa 1" xmlns="http://www.w3.org/2000/svg" viewBox="0 0 194.02 194.02"><defs><style>.cls-1{fill:#a1aa79;}.cls-2{fill:#fff;}</style></defs><title>iconos</title><circle class="cls-1" cx="97.01" cy="97.01" r="97.01"/><path class="cls-2" d="M150.55,124.75a27.79,27.79,0,0,0-19.13-26.36,15.85,15.85,0,0,0-8.63-29.15,15.31,15.31,0,0,0-2.46.21c.11-.33.25-.64.35-1l4.09-1V55.19l-4.09-1a23.81,23.81,0,0,0-1.93-4.64L121,46l-8.65-8.65-3.57,2.21a24.92,24.92,0,0,0-4.65-1.93l-1-4.08H90.89l-1,4.08a25.2,25.2,0,0,0-4.65,1.93l-3.57-2.21L73.06,46l2.21,3.58a24.44,24.44,0,0,0-1.93,4.64l-4.09,1V67.53l4.09,1c.1.32.24.64.35,1a15.28,15.28,0,0,0-2.45-.21A15.85,15.85,0,0,0,62.6,98.39a27.78,27.78,0,0,0-19.12,26.36v7.93H74.26a27.59,27.59,0,0,0-5,15.87v7.93h55.52v-7.93a27.59,27.59,0,0,0-5-15.87h30.79Zm-23.8-21.81c0,3.23-1.81,6-4,6s-4-2.72-4-6a7.86,7.86,0,0,1,.2-1.67,22.37,22.37,0,0,1,7.54,0A7.74,7.74,0,0,1,126.75,102.94ZM97,120.79a11.9,11.9,0,1,1,11.9-11.9A11.92,11.92,0,0,1,97,120.79ZM81.58,103.33c.17.09.34.16.5.25a15.8,15.8,0,0,0-.93,5.31,16.39,16.39,0,0,0,.19,2.33L78.7,117l-4.81-6ZM97,93a15.85,15.85,0,0,0-13.15,7,28.89,28.89,0,0,0-4-1.65A15.85,15.85,0,0,0,87.1,85.1c0-.37,0-.73-.06-1.09a27.07,27.07,0,0,0,2.89,1.07l1,4.08h12.24l1-4.08A26.29,26.29,0,0,0,107,84c0,.36,0,.72,0,1.09a15.84,15.84,0,0,0,7.22,13.28,27.76,27.76,0,0,0-4,1.66A15.84,15.84,0,0,0,97,93Zm37.67-7.93a11.9,11.9,0,1,1-11.89-11.9,11.9,11.9,0,0,1,11.89,11.9ZM76.87,66.36l-.29-1.18-3.36-.8V58.32l3.36-.79.29-1.18a20.74,20.74,0,0,1,2.4-5.78l.63-1-1.82-2.94,4.21-4.21,2.94,1.82,1-.64a20.53,20.53,0,0,1,5.79-2.39l1.18-.29L94,37.51h6l.79,3.36,1.18.29a21,21,0,0,1,5.79,2.4l1,.63,2.94-1.82,4.21,4.22-1.82,2.94.63,1a20.45,20.45,0,0,1,2.4,5.78l.29,1.18,3.36.8v6.06l-3.36.79-.29,1.18a20.55,20.55,0,0,1-1.87,4.77,16,16,0,0,0-7.08,7.74l-.45.27a20.44,20.44,0,0,1-5.79,2.4l-1.18.29L100,85.19H94l-.8-3.36-1.18-.29a20.8,20.8,0,0,1-5.79-2.4l-.45-.27a15.94,15.94,0,0,0-7.07-7.74,20.14,20.14,0,0,1-1.88-4.77ZM59.34,85.1A11.9,11.9,0,1,1,71.24,97,11.91,11.91,0,0,1,59.34,85.1ZM77.5,101.8l-6.26,6.27L65,101.82a23.4,23.4,0,0,1,6.25-.86A23.92,23.92,0,0,1,77.5,101.8ZM68.58,111l-4.81,6-5.53-12.18a24,24,0,0,1,2.67-1.5ZM47.44,124.75A23.74,23.74,0,0,1,55,107.38l7.81,17.17,8.4-10.5,8.39,10.5,3.58-7.87a16,16,0,0,0,5.17,5.5,27.77,27.77,0,0,0-10.76,6.54H57.36v-11.9h-4v11.9h-6Zm49.57,0a23.58,23.58,0,0,1,9.68,2.08L97,149.45l-9.67-22.62A23.53,23.53,0,0,1,97,124.75Zm-23.79,23.8a23.75,23.75,0,0,1,10.62-19.8L94,152.51H83.13v-11.9h-4v11.9h-6Zm47.58,4h-5.94v-11.9h-4v11.9H100l10.16-23.76a23.75,23.75,0,0,1,10.62,19.8Zm25.78-23.79h-6v-11.9h-4v11.9H116.4a27.77,27.77,0,0,0-10.76-6.54,15.78,15.78,0,0,0,6.3-18.6,24.39,24.39,0,0,1,3-1.28c0,.22,0,.43,0,.64,0,5.47,3.55,9.92,7.93,9.92s7.93-4.45,7.93-9.92c0-.2,0-.41-.06-.61a23.81,23.81,0,0,1,15.92,22.42Z"/><path class="cls-2" d="M97,69.24a7.94,7.94,0,1,0-7.93-7.94A7.94,7.94,0,0,0,97,69.24Zm0-11.9a4,4,0,1,1-4,4A4,4,0,0,1,97,57.34Z"/><path class="cls-2" d="M97,77.17A15.87,15.87,0,1,0,81.15,61.3,15.88,15.88,0,0,0,97,77.17Zm0-27.76A11.9,11.9,0,1,1,85.11,61.3,11.91,11.91,0,0,1,97,49.41Z"/></svg>